<?xml version="1.0" encoding="UTF-8"?> <svg xmlns="http://www.w3.org/2000/svg" viewBox="0 0 180 100"><defs><style>.cls-1{fill:#fff;}.cls-2{fill:none;}</style></defs><title>ARMCHAIR</title><g id="Layer_2" data-name="Layer 2"><g id="ARMCHAIR"><path class="cls-1" d="M122.85,40.76a33,33,0,0,0-65.7,0A13.1,13.1,0,0,0,57,63.59V78.68a2.09,2.09,0,0,0,2.09,2.08h2.33v8.82h10l4.42-8.82h28.3l4.42,8.82h10V80.76h2.33A2.09,2.09,0,0,0,123,78.68V63.59a13.1,13.1,0,0,0-.12-22.83ZM90,14.58a28.81,28.81,0,0,1,28.5,24.69,12.36,12.36,0,0,0-2-.18,13.13,13.13,0,0,0-13.11,13.12A12.94,12.94,0,0,0,105.24,59H74.76a12.94,12.94,0,0,0,1.88-6.74A13.13,13.13,0,0,0,63.53,39.09a12.36,12.36,0,0,0-2,.18A28.78,28.78,0,0,1,90,14.58ZM68.86,85.42H65.61V80.76h5.58Zm45.53,0h-3.25l-2.33-4.66h5.58Zm5.66-25a2.08,2.08,0,0,0-1.25,1.9V76.59H61.2V62.3A2.08,2.08,0,0,0,60,60.4a8.94,8.94,0,1,1,12.53-8.19,8.87,8.87,0,0,1-3.64,7.15,2.08,2.08,0,0,0,1.25,3.75h39.82a2.08,2.08,0,0,0,1.25-3.75,8.87,8.87,0,0,1-3.64-7.15,9,9,0,1,1,12.53,8.19Z"></path><rect class="cls-2" width="180" height="100"></rect></g></g></svg> 