<?xml version="1.0" encoding="UTF-8"?> <svg xmlns="http://www.w3.org/2000/svg" viewBox="0 0 180 100"><defs><style>.cls-1{fill:#fff;}.cls-2{fill:none;}</style></defs><title>CAR</title><g id="Layer_2" data-name="Layer 2"><g id="CAR"><path class="cls-1" d="M117.13,60.26a5.9,5.9,0,1,1-5.92,5.9,5.92,5.92,0,0,1,5.92-5.9m0-4.16a10.06,10.06,0,1,0,10.08,10.06A10.07,10.07,0,0,0,117.13,56.1Z"></path><path class="cls-1" d="M65.59,60.26a5.9,5.9,0,1,1-5.91,5.9,5.92,5.92,0,0,1,5.91-5.9m0-4.16A10.06,10.06,0,1,0,75.68,66.16,10.07,10.07,0,0,0,65.59,56.1Z"></path><rect class="cls-1" x="73.59" y="64.08" width="35.54" height="4.17"></rect><path class="cls-1" d="M125,42.83H112.71l-6.1-10.14-.12-.2c-1.39-2.41-3.12-5.41-8.23-5.41l-27.15.1c-2.7.11-5,2.17-6.33,5.78l-4,9.87H55.47c-5.66.11-8.53,3-8.76,8.71v.06L47,64.08H44.31v4.16H56.64V64.08H51.12l-.25-12.43c.16-3.54,1.22-4.59,4.64-4.65h8.13l5-12.52c.27-.73,1.28-3.09,2.54-3.14l27.07-.09c2.7,0,3.34,1.11,4.61,3.32L110.35,47h14.58c3.43.07,4.61,1.24,4.68,4.62V64.08h-4.55v4.16h8.72V51.58C133.66,46,130.63,42.94,125,42.83Z"></path><path class="cls-1" d="M103.21,45.41,97.57,37a2.06,2.06,0,0,0-1.73-.92H87v4.16h7.69l5,7.52Z"></path><rect class="cls-2" width="180" height="100"></rect></g></g></svg> 