<?xml version="1.0" encoding="UTF-8"?> <svg xmlns="http://www.w3.org/2000/svg" viewBox="0 0 180 100"><defs><style>.cls-1{fill:#fff;}.cls-2{fill:none;}</style></defs><title>CONTROLLER</title><g id="Layer_2" data-name="Layer 2"><g id="CONTROLLER"><path class="cls-1" d="M111.57,44.8H94.71c0-.07,0-.14,0-.22V42.14a4.15,4.15,0,0,0-2.8-3.91V32.51a1.84,1.84,0,0,0,0-.41.66.66,0,0,1,.08-.25h21.19a2.13,2.13,0,0,0,.79-.15c1.49-.61,4-2.47,4-5.56s-2.59-5-4.12-5.57a2,2,0,0,0-.77-.15H67.52a1.81,1.81,0,0,0-.4,0,1.57,1.57,0,0,1-1-.18A1.88,1.88,0,0,1,65.82,19a2.26,2.26,0,0,1,.44-1.54,1.75,1.75,0,0,1,1.09-.36H86.91a4.91,4.91,0,0,0,3.68-1,4.43,4.43,0,0,0,1.49-3.54,2.08,2.08,0,0,0-4.16,0c0,.24,0,.36,0,.35a1.37,1.37,0,0,1-.52.07,2,2,0,0,0-.34,0H67.58a5.87,5.87,0,0,0-4.13,1.44A6,6,0,0,0,61.65,19a5.57,5.57,0,0,0,1.87,4.55,5.58,5.58,0,0,0,4.15,1.09H112.6c.43.25,1.21.79,1.21,1.55a2,2,0,0,1-1.15,1.54h-21a4.29,4.29,0,0,0-3.15,1.87,4.51,4.51,0,0,0-.74,3.13v5.54A4.15,4.15,0,0,0,85,42.14v2.44a1.5,1.5,0,0,0,0,.22H67.52c-8,0-19.19,6.65-19.19,19.13,0,17.63,10,25.65,19.19,25.65,13.29,0,17.9-4.13,19.45-6.52h5.21C93.93,85.21,99,89.58,111,89.58c10.31,0,20.71-7.93,20.71-25.65C131.67,54.68,126.39,44.8,111.57,44.8Zm-21-2.65v2.42H89.13V42.15ZM111,85.42c-12.73,0-15.83-5.36-15.84-5.37a2.09,2.09,0,0,0-1.87-1.16H85.69a2,2,0,0,0-2,1.49c0,.05-1.93,5-16.17,5-7.23,0-15-6.73-15-21.49,0-9.76,8.72-15,15-15h44.05c14.38,0,15.93,10.46,15.93,15C127.5,78.77,119.2,85.42,111,85.42Z"></path><path class="cls-1" d="M101.46,61.64a5.21,5.21,0,1,0,5.21,5.2A5.21,5.21,0,0,0,101.46,61.64Zm0,6.25a1,1,0,1,1,1-1A1,1,0,0,1,101.46,67.89Z"></path><path class="cls-1" d="M119.2,61.64a5.21,5.21,0,1,0,5.2,5.2A5.2,5.2,0,0,0,119.2,61.64Zm0,6.25a1,1,0,1,1,1-1A1,1,0,0,1,119.2,67.89Z"></path><path class="cls-1" d="M110.41,70.2a5.21,5.21,0,1,0,5.21,5.21A5.22,5.22,0,0,0,110.41,70.2Zm0,6.25a1,1,0,1,1,1-1A1,1,0,0,1,110.41,76.45Z"></path><path class="cls-1" d="M110.41,63.54a5.21,5.21,0,1,0-5.21-5.21A5.21,5.21,0,0,0,110.41,63.54Zm0-6.25a1,1,0,1,1-1,1A1,1,0,0,1,110.41,57.29Z"></path><path class="cls-1" d="M78.65,61.85H76.72v-3.2c0-.16-.07-3.92-5.78-3.92-4.35,0-5.5,2.59-5.5,4v3.17H63.21a5,5,0,0,0-5,5.34,5.61,5.61,0,0,0,1.54,4.16,5.1,5.1,0,0,0,3.34,1.41h2.31v2.66c0,1.73,1.44,4.31,5.41,4.31,4.64,0,5.87-2.87,5.87-4.38V72.76h2a4.59,4.59,0,0,0,3.06-1.31,5.76,5.76,0,0,0,1.53-4.26C83.3,63.27,80.52,61.85,78.65,61.85Zm0,6.74h-4a2.1,2.1,0,0,0-2.09,2.09v4.49c-.09.11-.53.39-1.7.39-.82,0-1.18-.19-1.25-.28v-4.6a2.09,2.09,0,0,0-2.08-2.09H63.19c-.21,0-.78-.06-.78-1.41,0-.54.07-1.13.8-1.17h4.31a2.09,2.09,0,0,0,2.08-2.09V59.1a3.43,3.43,0,0,1,1.34-.2,4.31,4.31,0,0,1,1.61.23v4.8A2.1,2.1,0,0,0,74.64,66h3.93c.16,0,.57.06.57,1.18C79.14,67.41,79.11,68.5,78.65,68.59Z"></path><rect class="cls-2" width="180" height="100"></rect></g></g></svg> 