<?xml version="1.0" encoding="UTF-8"?> <svg xmlns="http://www.w3.org/2000/svg" viewBox="0 0 180 100"><defs><style>.cls-1{fill:#fff;}.cls-2{fill:none;}</style></defs><title>GIFT</title><g id="Layer_2" data-name="Layer 2"><g id="GIFT"><path class="cls-1" d="M125.42,23h-21c3.65-3.07,5.17-6.94,3.54-9.76-1.06-1.82-3.16-2.78-5.92-2.68a16.06,16.06,0,0,0-7.29,2.27,17.2,17.2,0,0,0-4.8,4,17.1,17.1,0,0,0-4.81-4,16,16,0,0,0-7.29-2.27c-2.77-.1-4.86.86-5.91,2.68C70.29,16,71.8,19.88,75.46,23H54.58V48h4.17V85.5h62.5V48h4.17ZM97.61,43.83H82.25V27.11H97.61Zm-5-23.67a12.12,12.12,0,0,1,4.16-3.77,12,12,0,0,1,5.34-1.72h.23c1.17,0,1.77.32,1.94.61.49.85-.93,3.76-4.72,6a12.13,12.13,0,0,1-5.34,1.71c-1.32,0-2-.3-2.17-.6S92,21.27,92.66,20.16ZM75.52,15.28c.17-.29.78-.61,2-.61h.22A12.06,12.06,0,0,1,83,16.39a12.08,12.08,0,0,1,4.15,3.77c.7,1.11.74,1.87.56,2.18s-.84.67-2.17.6a12.17,12.17,0,0,1-5.34-1.71C76.45,19,75,16.13,75.52,15.28ZM58.75,43.83V27.11H78.08V43.83ZM62.92,48H81.34V81.33H62.92ZM85.5,81.33V48h8.85V81.33Zm31.58,0H98.52V48h18.56Zm4.17-37.5H101.77V27.11h19.48Z"></path><rect class="cls-2" width="180" height="100"></rect></g></g></svg> 