<?xml version="1.0" encoding="UTF-8"?> <svg xmlns="http://www.w3.org/2000/svg" viewBox="0 0 180 100"><defs><style>.cls-1{fill:#fff;}.cls-2{fill:none;}</style></defs><title>HANDSHAKE</title><g id="Layer_2" data-name="Layer 2"><g id="HANDSHAKE"><path class="cls-1" d="M134.59,39.66,108.64,13.77,97.58,24.52l1.94,2a7.94,7.94,0,0,1-3.93,1.89,18.54,18.54,0,0,0-5.29,1.69,8.81,8.81,0,0,0-5.15-2.91c-1-.18-2.51-.55-4.22-1l1.5-1.52-10.85-11L45.35,39.94l11.37,10.8L58.42,49c.27,1,.5,2.37.58,2.91a13.21,13.21,0,0,0,2.62,6.36,17.63,17.63,0,0,0-3.3,4.31A6.17,6.17,0,0,0,59.76,70a6.34,6.34,0,0,0,2.78,1.57,6.21,6.21,0,0,0-.11,2.71,5.92,5.92,0,0,0,4.12,4.54,6.41,6.41,0,0,0,1.89.28,6.61,6.61,0,0,0,1-.08A6.46,6.46,0,0,0,71,82a7.1,7.1,0,0,0,5.1,2.44,5,5,0,0,0,2.4-.62A5.77,5.77,0,0,0,79.9,86a5.27,5.27,0,0,0,3.62,1.5,4.92,4.92,0,0,0,2.61-.75,14.33,14.33,0,0,0,2.92-2.28,7.71,7.71,0,0,0,3.07.65,6.5,6.5,0,0,0,4.61-1.82,5.8,5.8,0,0,0,1.65-3.68,7.24,7.24,0,0,0,1.59.18,6.41,6.41,0,0,0,1.59-.19,5.61,5.61,0,0,0,4.11-4.31,6.23,6.23,0,0,0,.14-1.14,7.62,7.62,0,0,0,1.84.24,6.18,6.18,0,0,0,1.66-.22,5.46,5.46,0,0,0,3.81-4,6.83,6.83,0,0,0,.14-2.21h.21a5.77,5.77,0,0,0,4.29-1.81c1.87-2,2-5.12.57-7.9a10.57,10.57,0,0,0,1.42-4.2,15.2,15.2,0,0,1,.36-1.73,7.06,7.06,0,0,1,1.93-3l1.64,1.66Zm-26-20,20.14,20.09L123.65,45,103.5,24.58Zm-52,25.28-5.3-5L71.57,19.58l5,5.05L57.41,44.1h0ZM62,64.58a13.29,13.29,0,0,1,2.48-3.26L68,64.78a23.87,23.87,0,0,1-3.52,2.69c-.8.5-1.7-.29-1.87-.46A2.11,2.11,0,0,1,62,64.58Zm5.78,10.3a1.75,1.75,0,0,1-1.25-1.34c-.2-1.06.53-2.34,2-3.51l2.54-2.28,3.11,3L72,72.87c-.25.24-.46.42-.6.55l-.11.11C70.14,74.72,68.84,75.21,67.77,74.88Zm6.31,4.37A1.62,1.62,0,0,1,74,76.81l1-1c.54-.51,1.29-1.24,2.19-2.15l3.24,3.16-1,.9c-1.29,1.13-2.31,2-2.81,2.39S74.83,80.09,74.08,79.25Zm8.68,3.68a1.51,1.51,0,0,1-.37-1.83,4.21,4.21,0,0,1,1-1.31L85.6,82A10.93,10.93,0,0,1,84,83.16,1,1,0,0,1,82.76,82.93Zm31.92-19.66c-.67.73-2,.59-3.57-.36L98.23,50.29a2.08,2.08,0,0,0-2.91,3L107,64.68a2,2,0,0,0,.3.36c1.68,1.56,2,3.17,1.8,4.08a1.26,1.26,0,0,1-.9,1c-.94.27-2.74-.25-5-2.35a12.47,12.47,0,0,0-1-1L91.73,56.49a2.08,2.08,0,1,0-2.94,2.95L99.22,69.82l.15.13c.11.09.2.19.3.28s0,0,.06.07l.5.48a4.25,4.25,0,0,1,1.37,3.59,1.44,1.44,0,0,1-1.08,1.16c-1.07.28-3-.3-5.3-2.54l-.76-.78-.39-.43a2.27,2.27,0,0,0-.32-.3L92,69.67c-2.16-2.19-4.2-4.25-6.39-6.58a2.09,2.09,0,1,0-3,2.87c2.22,2.35,4.37,4.53,6.45,6.64.81.81,1.62,1.64,2.44,2.48.31.33.62.65.92.94l.49.5c1.43,1.48,1.79,2.93.93,3.79s-3,.92-4.87-.93L66.63,57.61c-2.2-2.16-3-3.38-3.51-6.31a28.54,28.54,0,0,0-1.07-4.64l-.16-.41c-.08-.21-.15-.39-.22-.54L77.59,29.53l.74.22c1.87.53,4.45,1.2,6.07,1.5a4.77,4.77,0,0,1,2.19,1L76.5,38.55l-.09.05a6.65,6.65,0,0,0-2.27,8.74c1.61,3.17,4.89,4.36,8.54,3.1L97.52,44a.63.63,0,0,1,.7.12l15.94,15.21C115.39,60.94,115.36,62.52,114.68,63.27Zm1.43-12.17a18.65,18.65,0,0,0-.47,2.19,12.42,12.42,0,0,1-.29,1.43L101.1,41.1a4.79,4.79,0,0,0-5.24-.93L81.25,46.53c-2.44.81-3.16-.61-3.4-1.08a2.56,2.56,0,0,1,.9-3.4l12-7.45,1.73-1a14.82,14.82,0,0,1,3.8-1.16,12,12,0,0,0,6.18-3L119.1,46.29A11.05,11.05,0,0,0,116.11,51.1Z"></path><rect class="cls-2" width="180" height="100"></rect></g></g></svg> 