<?xml version="1.0" encoding="UTF-8"?> <svg xmlns="http://www.w3.org/2000/svg" viewBox="0 0 180 100"><defs><style>.cls-1{fill:none;}.cls-2{fill:#fff;}</style></defs><title>ISLAND</title><g id="Layer_2" data-name="Layer 2"><g id="ISLAND"><path class="cls-1" d="M90.61,24.56a9.82,9.82,0,0,0-1.43.1c-2.92.42-5.63,3-7.59,5.59l15.5-4A14.71,14.71,0,0,0,90.61,24.56Z"></path><path class="cls-1" d="M76.28,16.17c-1.69,1.33-3.5,3.25-4,5.55s1.22,5,3,7.13Z"></path><path class="cls-1" d="M64.7,31.15a7.32,7.32,0,0,0-2.58.43A13.65,13.65,0,0,0,56,36.81l15.5-4A17.55,17.55,0,0,0,64.7,31.15Z"></path><path class="cls-1" d="M91.92,35.85c-2.36-1.76-6.13-1.83-9.32-1.41L96.37,42.6A13.65,13.65,0,0,0,91.92,35.85Z"></path><path class="cls-1" d="M102.4,74.93a28,28,0,0,0-45.28,8.38,6,6,0,0,0,1.2.12,5.85,5.85,0,0,0,5.84-5.84h4.17a5.84,5.84,0,0,0,11.68,0h4.17a5.84,5.84,0,0,0,11.68,0H100a5.85,5.85,0,0,0,5.84,5.84A6,6,0,0,0,108,83,27.76,27.76,0,0,0,102.4,74.93Z"></path><path class="cls-1" d="M82.64,62.58l1.44,0A102.74,102.74,0,0,0,82,48.36a37.75,37.75,0,0,0-4.48-11.47c.55,2.41,1.27,5.83,1.93,9.91a83.19,83.19,0,0,1,.67,15.89C81,62.62,81.79,62.58,82.64,62.58Z"></path><path class="cls-1" d="M65.08,42.71a13.65,13.65,0,0,0-.66,8.06L72.58,37C69.58,38.17,66.31,40,65.08,42.71Z"></path><path class="cls-2" d="M127.56,77.59a5.84,5.84,0,0,1-11.68,0h-4.17a5.81,5.81,0,0,1-.52,2.4,32.11,32.11,0,0,0-16-14.89,32.42,32.42,0,0,0-6.85-2,103.19,103.19,0,0,0-2.23-15.6,43.16,43.16,0,0,0-2.36-7.54L98.32,48.6a2,2,0,0,0,1.06.29,2.08,2.08,0,0,0,1.1-.31,2,2,0,0,0,1-1.91c0-.39-.72-9.44-7-14.16a11.33,11.33,0,0,0-1.4-.88l9.71-2.48a2.09,2.09,0,0,0,1.51-1.54,2.07,2.07,0,0,0-.66-2.05c-.29-.25-7.17-6.16-15-5C85,21.05,82,23.47,79.71,26l1-13.66a2.08,2.08,0,0,0-.89-1.88,2.12,2.12,0,0,0-2.08-.17c-.33.16-8.18,3.94-9.56,10.58a10.31,10.31,0,0,0,1.29,6.85,14.31,14.31,0,0,0-8.85,0c-7.4,2.76-10.61,11.25-10.74,11.61a2.09,2.09,0,0,0,1.95,2.81,2.25,2.25,0,0,0,.52-.07l9.71-2.48A10.08,10.08,0,0,0,61.29,41c-3.28,7.18.45,15.45.61,15.8A2.09,2.09,0,0,0,63.69,58h.11a2.08,2.08,0,0,0,1.79-1l8.78-14.82c.32,1.6.64,3.39,1,5.32a83.26,83.26,0,0,1,.58,15.82A32.12,32.12,0,0,0,53.59,81a5.85,5.85,0,0,1-1.11-3.42H48.31a10,10,0,0,0,17.94,6.09,10,10,0,0,0,15.85,0,10,10,0,0,0,15.84,0,10,10,0,0,0,15.85,0,10,10,0,0,0,17.93-6.09Zm-31.19-35L82.6,34.44c3.19-.42,7-.35,9.32,1.41A13.65,13.65,0,0,1,96.37,42.6ZM89.18,24.66a9.82,9.82,0,0,1,1.43-.1,14.71,14.71,0,0,1,6.48,1.73l-15.5,4C83.55,27.7,86.26,25.08,89.18,24.66ZM72.3,21.72c.48-2.3,2.29-4.22,4-5.55l-1,12.68C73.52,26.69,71.84,23.93,72.3,21.72ZM62.12,31.58a7.32,7.32,0,0,1,2.58-.43,17.55,17.55,0,0,1,6.75,1.69l-15.5,4A13.65,13.65,0,0,1,62.12,31.58Zm2.3,19.19a13.65,13.65,0,0,1,.66-8.06c1.23-2.68,4.5-4.54,7.5-5.7Zm15-4c-.66-4.08-1.38-7.5-1.93-9.91A37.75,37.75,0,0,1,82,48.36a102.74,102.74,0,0,1,2.09,14.25l-1.44,0c-.85,0-1.69,0-2.53.11A83.19,83.19,0,0,0,79.44,46.8ZM100,77.59H95.86a5.84,5.84,0,0,1-11.68,0H80a5.84,5.84,0,0,1-11.68,0H64.16a5.85,5.85,0,0,1-5.84,5.84,6,6,0,0,1-1.2-.12A27.94,27.94,0,0,1,108,83a6,6,0,0,1-2.16.41A5.85,5.85,0,0,1,100,77.59Z"></path><path class="cls-2" d="M112,52.1a4.58,4.58,0,0,1,4.57,4.57,2.08,2.08,0,1,0,4.16,0,4.57,4.57,0,0,1,7.8-3.23l2.95-2.95a8.73,8.73,0,0,0-12.35,0c-.17.17-.33.34-.48.52-.15-.18-.31-.35-.48-.52a8.73,8.73,0,0,0-12.35,0l3,2.95A4.55,4.55,0,0,1,112,52.1Z"></path><path class="cls-2" d="M114.3,34.92a3.16,3.16,0,0,1,.93,2.25,2.09,2.09,0,0,0,4.17,0,3.16,3.16,0,0,1,.93-2.25,3.24,3.24,0,0,1,4.5,0l2.94-3a7.35,7.35,0,0,0-10.39,0,.46.46,0,0,1-.07.07l-.07-.07a7.35,7.35,0,0,0-10.39,0l3,3A3.24,3.24,0,0,1,114.3,34.92Z"></path><rect class="cls-1" width="180" height="100"></rect></g></g></svg> 