<?xml version="1.0" encoding="UTF-8"?> <svg xmlns="http://www.w3.org/2000/svg" viewBox="0 0 180 100"><defs><style>.cls-1{fill:none;}.cls-2{fill:#fff;}</style></defs><title>MONEY</title><g id="Layer_2" data-name="Layer 2"><g id="MONEY"><rect class="cls-1" x="40" width="100" height="100"></rect><path class="cls-2" d="M134.14,61.34l-.43-2.13c0-.11-2.15-10.49-2.49-15.62a135,135,0,0,1,.52-14.25l.23-2.66-2.64.43c-.25,0-25.35,4.1-37.84,4.81s-37.93-.45-38.19-.46l-2.69-.12L51.17,34s.15.75.39,1.92l-3-.3-2.66-.28L46.27,38a150.72,150.72,0,0,1,1.45,15.1,145.29,145.29,0,0,1-1.45,14.82L46,70l2.16.22c1.05.11,25.79,2.67,38.51,2.67s37.47-2.56,38.52-2.67l2.14-.22L127,67.89s-.32-2.35-.66-5.32c3.44-.53,5.66-.89,5.66-.89ZM55.77,35.74c6.93.28,25.53.94,36,.34s28.83-3.37,35.65-4.44c-.07,1-.15,2.33-.22,3.69l-2.44.26c-.25,0-25.57,2.64-38.09,2.64-8.3,0-22.23-1.15-30.75-1.93C55.84,36.11,55.81,35.91,55.77,35.74Zm30.86,33c-10.37,0-29.53-1.8-35.94-2.43a123.21,123.21,0,0,0,1.2-13.26A125.54,125.54,0,0,0,50.75,40c6.88.67,25.43,2.4,35.88,2.4s29-1.72,35.87-2.4a108.53,108.53,0,0,0-1.12,12.17,141.18,141.18,0,0,0,1.21,14.15C116.2,67,97,68.75,86.63,68.75Zm39.28-10.33c-.21-2.29-.36-4.56-.36-6.25A134,134,0,0,1,127,38l.06-.44c-.08,2.28-.11,4.6,0,6.34a139.75,139.75,0,0,0,2.13,14Z"></path><path class="cls-2" d="M88.61,49.54a6.69,6.69,0,0,1,1.69.22,15,15,0,0,1,1.76.62l1.33-2.94a11.23,11.23,0,0,0-4.78-1,8.51,8.51,0,0,0-5.5,1.78A7.61,7.61,0,0,0,80.41,53h-1.8v2.22h1.57l0,.68a4,4,0,0,0,.06.78h-1.6V59h1.86a7.39,7.39,0,0,0,2.7,4.66,8.6,8.6,0,0,0,5.47,1.68,9.22,9.22,0,0,0,4-.75V61.31a9.72,9.72,0,0,1-3.73.73Q85.22,62,84.52,59h4.59V56.71H84.29l0-.42v-.6l0-.44H90V53H84.5a4.22,4.22,0,0,1,1.38-2.59A4.12,4.12,0,0,1,88.61,49.54Z"></path><rect class="cls-1" width="180" height="100"></rect></g></g></svg> 