<?xml version="1.0" encoding="UTF-8"?> <svg xmlns="http://www.w3.org/2000/svg" viewBox="0 0 180 100"><defs><style>.cls-1{fill:none;}.cls-2{fill:#fff;}</style></defs><title>OPEN BOOK</title><g id="Layer_2" data-name="Layer 2"><g id="OPEN_BOOK" data-name="OPEN BOOK"><path class="cls-1" d="M76.46,68.59c-8.65,0-12.6,1.82-12.64,1.84a2.09,2.09,0,0,1-3-1.88V29H56.61V74.81l27.51,0a6.27,6.27,0,0,1,3.23-3.57C85.67,70.22,82.16,68.59,76.46,68.59Z"></path><path class="cls-1" d="M92.08,66.85a25.75,25.75,0,0,1,11.46-2.43A46,46,0,0,1,115,65.68V27.93c-1.35-1-5-3.07-11.46-3.07a14.68,14.68,0,0,0-11.46,4.91Zm4.1-33.4.61-.22a25.33,25.33,0,0,1,13.29-.39l1.1.26v4.27l-2-.47a21.07,21.07,0,0,0-11,.27l-2,.68Zm0,8.33.61-.21a25.31,25.31,0,0,1,13.29-.39l1.1.25V45.7l-2-.46a21,21,0,0,0-11,.27l-2,.68V41.78Zm0,8.33.61-.21a25.12,25.12,0,0,1,13.29-.39l1.1.25V54l-2-.46a21,21,0,0,0-11,.27l-2,.68h0Z"></path><path class="cls-1" d="M87.92,66.85V29.77a14.66,14.66,0,0,0-11.46-4.91C70,24.86,66.37,26.94,65,27.93V65.68a46,46,0,0,1,11.46-1.26A25.75,25.75,0,0,1,87.92,66.85ZM68.82,33.1l1.1-.26a25.33,25.33,0,0,1,13.29.39l.61.22v4.4l-2-.68a21.07,21.07,0,0,0-11-.27l-2,.47Zm0,8.33,1.1-.25a25.31,25.31,0,0,1,13.29.39l.61.21v4.41l-2-.68a21,21,0,0,0-11-.27l-2,.46Zm2,12.14-2,.46V49.76l1.1-.25a25.12,25.12,0,0,1,13.29.39l.61.21v4.4h0l-2-.68A21,21,0,0,0,70.85,53.57Z"></path><path class="cls-1" d="M119.17,68.55a2.09,2.09,0,0,1-3,1.88c-.1,0-4.05-1.84-12.64-1.84-5.7,0-9.2,1.62-10.89,2.68a6.29,6.29,0,0,1,3.24,3.57l27.49,0V29h-4.21Z"></path><path class="cls-2" d="M125.46,24.86h-7.62c-1.66-1.29-6.27-4.16-14.3-4.16A19.09,19.09,0,0,0,90,25.92,19.09,19.09,0,0,0,76.46,20.7c-8,0-12.64,2.87-14.3,4.16H54.53A2.1,2.1,0,0,0,52.44,27V76.89A2.08,2.08,0,0,0,54.52,79l31.31,0h0a2.09,2.09,0,0,0,2.09-2.08,2.08,2.08,0,1,1,4.16,0h0a1.52,1.52,0,0,0,0,.21.75.75,0,0,0,0,.21,1.09,1.09,0,0,0,.05.17,1.87,1.87,0,0,0,.07.22s0,.09.07.14l.12.22.07.08a2,2,0,0,0,.19.22h0a3.31,3.31,0,0,0,.3.25h0a2,2,0,0,0,.35.19h0a2,2,0,0,0,.77.15h0l31.29,0a2.08,2.08,0,0,0,2.08-2.08V27A2.09,2.09,0,0,0,125.46,24.86Zm-21.92,0c6.46,0,10.11,2.09,11.46,3.07V65.68a46,46,0,0,0-11.46-1.26,25.75,25.75,0,0,0-11.46,2.43V29.77A14.68,14.68,0,0,1,103.54,24.86ZM65,27.93c1.37-1,5-3.07,11.46-3.07a14.66,14.66,0,0,1,11.46,4.91V66.85a25.75,25.75,0,0,0-11.46-2.43A46,46,0,0,0,65,65.68ZM84.12,74.84l-27.51,0V29h4.22V68.55a2.09,2.09,0,0,0,3,1.88s4-1.84,12.64-1.84c5.7,0,9.21,1.63,10.89,2.68A6.27,6.27,0,0,0,84.12,74.84Zm39.26,0-27.49,0a6.29,6.29,0,0,0-3.24-3.57c1.69-1.06,5.19-2.68,10.89-2.68,8.59,0,12.54,1.8,12.64,1.84a2.09,2.09,0,0,0,3-1.88V29h4.21Z"></path><path class="cls-2" d="M81.85,37.17l2,.68v-4.4l-.61-.22a25.33,25.33,0,0,0-13.29-.39l-1.1.26v4.27l2-.47A21.07,21.07,0,0,1,81.85,37.17Z"></path><path class="cls-2" d="M81.85,45.51l2,.68V41.78l-.61-.21a25.31,25.31,0,0,0-13.29-.39l-1.1.25V45.7l2-.46A21,21,0,0,1,81.85,45.51Z"></path><path class="cls-2" d="M83.82,54.52h0v-4.4l-.61-.21a25.12,25.12,0,0,0-13.29-.39l-1.1.25V54l2-.46a21,21,0,0,1,11,.27Z"></path><path class="cls-2" d="M109.15,36.9l2,.47V33.1l-1.1-.26a25.33,25.33,0,0,0-13.29.39l-.61.22v4.4l2-.68A21.07,21.07,0,0,1,109.15,36.9Z"></path><path class="cls-2" d="M98.15,45.51a21,21,0,0,1,11-.27l2,.46V41.43l-1.1-.25a25.31,25.31,0,0,0-13.29.39l-.61.21v4.41Z"></path><path class="cls-2" d="M98.15,53.84a21,21,0,0,1,11-.27l2,.46V49.76l-1.1-.25a25.12,25.12,0,0,0-13.29.39l-.61.21v4.4h0Z"></path><rect class="cls-1" width="180" height="100"></rect></g></g></svg> 