<?xml version="1.0" encoding="UTF-8"?> <svg xmlns="http://www.w3.org/2000/svg" viewBox="0 0 180 100"><defs><style>.cls-1{fill:#fff;}.cls-2{fill:none;}</style></defs><title>ROCKET</title><g id="Layer_2" data-name="Layer 2"><g id="ROCKET"><path class="cls-1" d="M90,29.17h0A10.42,10.42,0,1,0,90,50h0a10.32,10.32,0,0,0,7.36-3.06A10.41,10.41,0,0,0,90,29.17ZM94.42,44A6.19,6.19,0,0,1,90,45.83h0a6.25,6.25,0,0,1,0-12.5h0A6.25,6.25,0,0,1,94.42,44Z"></path><rect class="cls-1" x="77.5" y="79.17" width="4.17" height="12.5"></rect><rect class="cls-1" x="98.33" y="78.13" width="4.17" height="11.46"></rect><rect class="cls-1" x="87.92" y="83.33" width="4.17" height="12.5"></rect><path class="cls-1" d="M110.3,41.63a35.52,35.52,0,0,0-.81-4.9c-1.89-7.66-10.17-26-19.48-26.09h0c-7.21,0-18.12,17.93-19.79,26.16a36.27,36.27,0,0,0-.62,4.75C50.43,52.38,58.31,72.42,58.39,72.62a2.11,2.11,0,0,0,1.53,1.26,2.71,2.71,0,0,0,.4,0,2.07,2.07,0,0,0,1.48-.62l8.81-8.87c.6,4.91,1.2,8.43,1.26,8.8a1.86,1.86,0,0,0,1.83,1.54h32.82a1.86,1.86,0,0,0,1.83-1.54c.06-.36.63-3.7,1.18-8.38l8.39,8.45a2.09,2.09,0,0,0,1.48.62,2.85,2.85,0,0,0,.41,0,2.07,2.07,0,0,0,1.52-1.26C121.41,72.42,129.25,52.48,110.3,41.63ZM90,14.36h0c2.44,0,5.22,2.49,7.81,6h-15C85.59,16.87,88.32,14.36,90,14.36ZM61.32,67.87c-1.06-4.94-1.54-14.56,8.07-21.3,0,4.15.27,8.54.65,12.53Zm14,3.19c-.84-5.41-3.43-23.76-1.44-33.52.74-3.64,3.18-8.59,6-13h20.6a53.86,53.86,0,0,1,5.42,13c2.39,9.72-.12,28-1,33.44Zm43.11-3.2-8.31-8.36a124,124,0,0,0,.51-12.74C119.88,53.46,119.42,63,118.39,67.86Z"></path><rect class="cls-2" width="180" height="100"></rect></g></g></svg> 